<svg id="Layer_1" enable-background="new 0 0 512 512" height="512" viewBox="0 0 512 512" width="512" xmlns="http://www.w3.org/2000/svg"><g><g fill="#497285"><path d="m34.269 239.886h30.875v63.436h-30.875z" transform="matrix(0 1 -1 0 321.31 221.898)"/><path d="m228.139 95.966h30.905v71.012h-30.905z"/><path d="m433.627 269.825h57.334v123.894h-57.334z"/></g><path d="m66.447 199.709v142.74c0 5.257 2.97 10.063 7.671 12.411l152.515 76.18c1.923.96 4.042 1.46 6.191 1.46h198.867c7.656 0 13.862-6.21 13.862-13.871v-183.188c0-4.115-1.826-8.018-4.985-10.654l-85.16-71.058c-2.492-2.079-5.633-3.218-8.878-3.218h-214.176c-2.775 0-5.485.833-7.782 2.392l-52.045 35.326c-3.803 2.581-6.08 6.881-6.08 11.48z" fill="#ffde5c"/><path d="m440.569 224.787-85.16-71.058c-2.492-2.079-5.633-3.218-8.878-3.218h-30.905c3.244 0 6.386 1.139 8.878 3.218l85.16 71.058c3.159 2.636 4.985 6.538 4.985 10.654v183.188c0 7.661-6.206 13.871-13.862 13.871h30.905c7.656 0 13.862-6.21 13.862-13.871v-183.188c-.001-4.116-1.827-8.018-4.985-10.654z" fill="#ffc736"/><path d="m495.525 426.454h-.016c-9.099 0-16.475-7.376-16.475-16.475v-156.414c0-9.099 7.376-16.475 16.475-16.475h.016c9.099 0 16.475 7.376 16.475 16.475v156.415c0 9.099-7.376 16.474-16.475 16.474z" fill="#ffde5c"/><path d="m16.491 368.692h-.016c-9.099 0-16.475-7.376-16.475-16.474v-156.415c0-9.099 7.376-16.475 16.475-16.475h.016c9.099 0 16.475 7.376 16.475 16.475v156.415c0 9.098-7.376 16.474-16.475 16.474z" fill="#ffde5c"/><path d="m148.815 95.966c0-9.094 7.372-16.466 16.466-16.466h156.62c9.094 0 16.466 7.372 16.466 16.466 0 9.094-7.372 16.466-16.466 16.466h-156.62c-9.094.001-16.466-7.371-16.466-16.466z" fill="#ffde5c"/><path d="m321.885 79.5h-30.905c9.103 0 16.483 7.372 16.483 16.466 0 9.094-7.38 16.466-16.483 16.466h30.905c9.103 0 16.483-7.372 16.483-16.466 0-9.094-7.379-16.466-16.483-16.466z" fill="#ffc736"/><path d="m288.806 214.229-74.272 53.082c-1.764 1.261-1.993 3.793-.484 5.349l18.67 19.249c.898.926 1.222 2.267.845 3.501l-16.615 54.398c-.976 3.194 2.608 5.84 5.378 3.972l78.477-52.919c1.805-1.217 2.097-3.756.614-5.35l-23.114-24.852c-.889-.956-1.18-2.322-.759-3.557l16.681-48.846c1.115-3.262-2.615-6.032-5.421-4.027z" fill="#f1f1f1"/></g></svg>